Poster: 
http://imageshack.us/a/img856/3818/1354922344smotruonliner.jpg

Info:
Format : MPEG-PS
File size : 678 MiB
Duration : 2h 12mn
Overall bit rate mode : Variable
Overall bit rate : 717 Kbps

Video #224
ID : 224 (0xE0)
Format : MPEG Video
Format version : Version 1
Format settings, BVOP : Yes
Format settings, Matrix : Custom
Format settings, GOP : Variable
Duration : 2h 12mn
Bit rate mode : Variable
Bit rate : 643 Kbps
Width : 352 pixels
Height : 288 pixels
Display aspect ratio : 4:3
Frame rate : 25.000 fps
Standard : PAL
Color space : YUV
Bit depth : 8 bits
Scan type : Progressive
Compression mode : Lossy
Bits/(Pixel*Frame) : 0.254
Stream size : 604 MiB (89%)

Audio #192
ID : 192 (0xC0)
Format : MPEG Audio
Format version : Version 1
Format profile : Layer 2
Duration : 2h 12mn
Bit rate mode : Constant
Bit rate : 64.0 Kbps
Channel(s) : 2 channels
Sampling rate : 48.0 KHz
Compression mode : Lossy
Stream size : 60.5 MiB (9%)

Screens: 
http://www.shotpix.com/images/07755376586024630841.jpg








